<svg width="22" height="24" viewBox="0 0 22 24" fill="none" xmlns="http://www.w3.org/2000/svg">
<path d="M0 3.375C0 3.16875 0.176786 3 0.392857 3H21.6071C21.8232 3 22 3.16875 22 3.375C22 3.58125 21.8232 3.75 21.6071 3.75H0.392857C0.176786 3.75 0 3.58125 0 3.375ZM0 12C0 11.7937 0.176786 11.625 0.392857 11.625H21.6071C21.8232 11.625 22 11.7937 22 12C22 12.2063 21.8232 12.375 21.6071 12.375H0.392857C0.176786 12.375 0 12.2063 0 12ZM22 20.625C22 20.8312 21.8232 21 21.6071 21H0.392857C0.176786 21 0 20.8312 0 20.625C0 20.4188 0.176786 20.25 0.392857 20.25H21.6071C21.8232 20.25 22 20.4188 22 20.625Z" fill="white"/>
</svg>
