<svg width="27" height="32" viewBox="0 0 27 32" fill="none" xmlns="http://www.w3.org/2000/svg">
<path d="M19.4062 12.7141C19.4062 10.1203 18.5173 7.63267 16.935 5.79855C15.3526 3.96443 13.2065 2.93403 10.9688 2.93403C8.73099 2.93403 6.58487 3.96443 5.00254 5.79855C3.4202 7.63267 2.53125 10.1203 2.53125 12.7141C2.53125 15.308 3.4202 17.7956 5.00254 19.6297C6.58487 21.4638 8.73099 22.4942 10.9688 22.4942C13.2065 22.4942 15.3526 21.4638 16.935 19.6297C18.5173 17.7956 19.4062 15.308 19.4062 12.7141ZM17.7768 22.6837C15.91 24.4013 13.5422 25.4282 10.9688 25.4282C4.90957 25.4282 0 19.7374 0 12.7141C0 5.69079 4.90957 0 10.9688 0C17.0279 0 21.9375 5.69079 21.9375 12.7141C21.9375 15.697 21.0516 18.4416 19.5697 20.6054L26.6309 28.7901C27.1266 29.3647 27.1266 30.2938 26.6309 30.8623C26.1352 31.4308 25.3336 31.4369 24.8432 30.8623L17.7768 22.6837Z" fill="#867B7B"/>
</svg>
